<?xml version="1.0" encoding="utf-8"?>
<!-- Generator: Adobe Illustrator 24.0.1, SVG Export Plug-In . SVG Version: 6.00 Build 0)  -->
<svg version="1.1" xmlns="http://www.w3.org/2000/svg" xmlns:xlink="http://www.w3.org/1999/xlink" x="0px" y="0px"
	 viewBox="0 0 1440 1440" style="enable-background:new 0 0 1440 1440;" xml:space="preserve">
<style type="text/css">
	.st0{fill:#FFFFFF;}
</style>
<g id="Capa_2">
	<g>
		<rect x="0.5" y="0.5" class="st0" width="1439" height="1439"/>
		<path class="st0" d="M1439,1v1438H1V1H1439 M1440,0H0v1440h1440V0L1440,0z"/>
	</g>
</g>
<g id="Capa_1">
	<g>
		<g>
			<rect x="0.5" y="0.5" class="st0" width="359" height="359"/>
			<path class="st0" d="M359,1v358H1V1H359 M360,0H0v360h360V0L360,0z"/>
		</g>
		<g>
			<circle cx="180" cy="180.01" r="107.5"/>
			<path d="M180,73.01c28.58,0,55.45,11.13,75.66,31.34S287,151.43,287,180.01s-11.13,55.45-31.34,75.66
				c-20.21,20.21-47.08,31.34-75.66,31.34s-55.45-11.13-75.66-31.34C84.13,235.46,73,208.59,73,180.01s11.13-55.45,31.34-75.66
				C124.55,84.14,151.42,73.01,180,73.01 M180,72.01c-59.65,0-108,48.35-108,108s48.35,108,108,108s108-48.35,108-108
				S239.65,72.01,180,72.01L180,72.01z"/>
		</g>
	</g>
	<g>
		<polygon points="1.21,1079.5 359.5,721.21 359.5,1079.5 		"/>
		<path d="M359,722.41V1079H2.41L359,722.41 M360,720C240,840,120,960,0,1080h360V720L360,720z"/>
	</g>
	<g>
		<polygon points="720.5,1079.5 720.5,721.21 1078.79,1079.5 		"/>
		<path d="M721,722.41L1077.59,1079H721V722.41 M720,720v360h360C960,960,840,840,720,720L720,720z"/>
	</g>
	<g>
		<polygon points="361.21,360.5 719.5,360.5 719.5,718.79 		"/>
		<path d="M719,361v356.59L362.41,361H719 M720,360H360c120,120,240,240,360,360V360L720,360z"/>
	</g>
	<g>
		<polygon points="1080.5,359.5 1438.79,359.5 1080.5,717.79 		"/>
		<path d="M1437.59,360l-178.29,178.29L1081,716.59l0-356.59L1437.59,360 M1440,359l-360,0l0,360C1200,599,1320,479,1440,359
			L1440,359z"/>
	</g>
	<g>
		<rect x="1080.44" y="0.95" width="359" height="359"/>
		<path d="M1438.94,1.45v358h-358v-358H1438.94 M1439.94,0.45h-360v360h360V0.45L1439.94,0.45z"/>
	</g>
	<g>
		<g>
			<rect x="1080.44" y="1080.95" class="st0" width="359" height="359"/>
			<path class="st0" d="M1438.94,1081.45v358h-358v-358H1438.94 M1439.94,1080.45h-360v360h360V1080.45L1439.94,1080.45z"/>
		</g>
		<g>
			<ellipse cx="1259.94" cy="1260.46" rx="107.5" ry="107.5"/>
			<path d="M1259.94,1153.46c28.58,0,55.45,11.13,75.66,31.34c20.21,20.21,31.34,47.08,31.34,75.66c0,28.58-11.13,55.45-31.34,75.66
				c-20.21,20.21-47.08,31.34-75.66,31.34c-28.58,0-55.45-11.13-75.66-31.34c-20.21-20.21-31.34-47.08-31.34-75.66
				c0-28.58,11.13-55.45,31.34-75.66C1204.48,1164.59,1231.35,1153.46,1259.94,1153.46 M1259.94,1152.46c-59.65,0-108,48.35-108,108
				s48.35,108,108,108c59.65,0,108-48.35,108-108S1319.58,1152.46,1259.94,1152.46L1259.94,1152.46z"/>
		</g>
	</g>
	<g>
		<g>
			<rect x="0.44" y="1080.95" width="359" height="359"/>
			<path d="M358.94,1081.45v358h-358v-358H358.94 M359.94,1080.45h-360v360h360V1080.45L359.94,1080.45z"/>
		</g>
		<g>
			<ellipse class="st0" cx="179.94" cy="1260.46" rx="107.5" ry="107.5"/>
			<path d="M179.94,1153.46c28.58,0,55.45,11.13,75.66,31.34c20.21,20.21,31.34,47.08,31.34,75.66s-11.13,55.45-31.34,75.66
				s-47.08,31.34-75.66,31.34s-55.45-11.13-75.66-31.34c-20.21-20.21-31.34-47.08-31.34-75.66s11.13-55.45,31.34-75.66
				C124.48,1164.59,151.35,1153.46,179.94,1153.46 M179.94,1152.46c-59.65,0-108,48.35-108,108s48.35,108,108,108s108-48.35,108-108
				S239.58,1152.46,179.94,1152.46L179.94,1152.46z"/>
		</g>
	</g>
	<g>
		<g>
			<rect x="360.44" y="720.95" width="359" height="359"/>
			<path d="M718.94,721.45v358h-358v-358H718.94 M719.94,720.45h-360v360h360V720.45L719.94,720.45z"/>
		</g>
		<g>
			<ellipse class="st0" cx="539.94" cy="900.46" rx="107.5" ry="107.5"/>
			<path d="M539.94,793.46c28.58,0,55.45,11.13,75.66,31.34c20.21,20.21,31.34,47.08,31.34,75.66c0,28.58-11.13,55.45-31.34,75.66
				c-20.21,20.21-47.08,31.34-75.66,31.34c-28.58,0-55.45-11.13-75.66-31.34c-20.21-20.21-31.34-47.08-31.34-75.66
				c0-28.58,11.13-55.45,31.34-75.66C484.48,804.59,511.35,793.46,539.94,793.46 M539.94,792.46c-59.65,0-108,48.35-108,108
				c0,59.65,48.35,108,108,108c59.65,0,108-48.35,108-108C647.94,840.82,599.58,792.46,539.94,792.46L539.94,792.46z"/>
		</g>
	</g>
	<g>
		<g>
			<rect x="720.44" y="359.95" width="359" height="359"/>
			<path d="M1078.94,360.45v358h-358v-358H1078.94 M1079.94,359.45h-360v360h360V359.45L1079.94,359.45z"/>
		</g>
		<g>
			<ellipse class="st0" cx="899.94" cy="539.46" rx="107.5" ry="107.5"/>
			<path d="M899.94,432.46c28.58,0,55.45,11.13,75.66,31.34c20.21,20.21,31.34,47.08,31.34,75.66c0,28.58-11.13,55.45-31.34,75.66
				c-20.21,20.21-47.08,31.34-75.66,31.34c-28.58,0-55.45-11.13-75.66-31.34c-20.21-20.21-31.34-47.08-31.34-75.66
				c0-28.58,11.13-55.45,31.34-75.66C844.48,443.59,871.35,432.46,899.94,432.46 M899.94,431.46c-59.65,0-108,48.35-108,108
				c0,59.65,48.35,108,108,108c59.65,0,108-48.35,108-108C1007.94,479.82,959.58,431.46,899.94,431.46L899.94,431.46z"/>
		</g>
	</g>
</g>
</svg>
