<?xml version="1.0" encoding="utf-8"?>
<!-- Generator: Adobe Illustrator 24.0.1, SVG Export Plug-In . SVG Version: 6.00 Build 0)  -->
<svg version="1.1" xmlns="http://www.w3.org/2000/svg" xmlns:xlink="http://www.w3.org/1999/xlink" x="0px" y="0px"
	 viewBox="0 0 1440 1440" style="enable-background:new 0 0 1440 1440;" xml:space="preserve">
<style type="text/css">
	.st0{fill:#FFFFFF;}
</style>
<g id="Capa_2">
	<g>
		<rect x="0.5" y="0.5" class="st0" width="1439" height="1439"/>
		<path class="st0" d="M1439,1v1438H1V1H1439 M1440,0H0v1440h1440V0L1440,0z"/>
	</g>
</g>
<g id="Capa_1">
	<g>
		<polygon points="721.21,360.5 1079.5,360.5 1079.5,718.79 		"/>
		<path d="M1079,361v356.59L722.41,361H1079 M1080,360H720c120,120,240,240,360,360V360L1080,360z"/>
	</g>
	<g>
		<polygon points="360.5,360.5 718.79,360.5 360.5,718.79 		"/>
		<path d="M717.59,361L361,717.59V361H717.59 M720,360H360v360C480,600,600,480,720,360L720,360z"/>
	</g>
	<g>
		<g>
			<rect x="360.5" y="0.5" width="359" height="359"/>
			<path d="M719,1v358H361V1H719 M720,0H360v360h360V0L720,0z"/>
		</g>
		<g>
			<circle class="st0" cx="540" cy="180.01" r="107.5"/>
			<path d="M540,73.01c28.58,0,55.45,11.13,75.66,31.34c20.21,20.21,31.34,47.08,31.34,75.66c0,28.58-11.13,55.45-31.34,75.66
				c-20.21,20.21-47.08,31.34-75.66,31.34s-55.45-11.13-75.66-31.34C444.13,235.46,433,208.59,433,180.01
				c0-28.58,11.13-55.45,31.34-75.66C484.55,84.14,511.42,73.01,540,73.01 M540,72.01c-59.65,0-108,48.35-108,108
				c0,59.65,48.35,108,108,108s108-48.35,108-108C648,120.36,599.65,72.01,540,72.01L540,72.01z"/>
		</g>
	</g>
	<g>
		<g>
			<rect x="0.6" y="720.02" width="359" height="359"/>
			<path d="M359.1,720.52v358H1.1v-358H359.1 M360.1,719.52H0.1v360h360V719.52L360.1,719.52z"/>
		</g>
		<g>
			<ellipse class="st0" cx="180.1" cy="899.53" rx="107.5" ry="107.5"/>
			<path d="M180.1,792.53c28.58,0,55.45,11.13,75.66,31.34c20.21,20.21,31.34,47.08,31.34,75.66c0,28.58-11.13,55.45-31.34,75.66
				c-20.21,20.21-47.08,31.34-75.66,31.34s-55.45-11.13-75.66-31.34S73.1,928.11,73.1,899.53c0-28.58,11.13-55.45,31.34-75.66
				S151.52,792.53,180.1,792.53 M180.1,791.53c-59.65,0-108,48.35-108,108c0,59.65,48.35,108,108,108s108-48.35,108-108
				C288.1,839.88,239.74,791.53,180.1,791.53L180.1,791.53z"/>
		</g>
	</g>
	<g>
		<g>
			<rect x="1080.6" y="360.02" width="359" height="359"/>
			<path d="M1439.1,360.52v358h-358v-358H1439.1 M1440.1,359.52h-360v360h360V359.52L1440.1,359.52z"/>
		</g>
		<g>
			<ellipse class="st0" cx="1260.1" cy="539.53" rx="107.5" ry="107.5"/>
			<path d="M1260.1,432.53c28.58,0,55.45,11.13,75.66,31.34s31.34,47.08,31.34,75.66c0,28.58-11.13,55.45-31.34,75.66
				s-47.08,31.34-75.66,31.34c-28.58,0-55.45-11.13-75.66-31.34c-20.21-20.21-31.34-47.08-31.34-75.66
				c0-28.58,11.13-55.45,31.34-75.66C1204.65,443.66,1231.52,432.53,1260.1,432.53 M1260.1,431.53c-59.65,0-108,48.35-108,108
				c0,59.65,48.35,108,108,108s108-48.35,108-108C1368.1,479.88,1319.74,431.53,1260.1,431.53L1260.1,431.53z"/>
		</g>
	</g>
	<g>
		<g>
			<rect x="720.6" y="1080.02" width="359" height="359"/>
			<path d="M1079.1,1080.52v358h-358v-358H1079.1 M1080.1,1079.52h-360v360h360V1079.52L1080.1,1079.52z"/>
		</g>
		<g>
			<ellipse class="st0" cx="900.1" cy="1259.53" rx="107.5" ry="107.5"/>
			<path d="M900.1,1152.53c28.58,0,55.45,11.13,75.66,31.34s31.34,47.08,31.34,75.66c0,28.58-11.13,55.45-31.34,75.66
				s-47.08,31.34-75.66,31.34c-28.58,0-55.45-11.13-75.66-31.34s-31.34-47.08-31.34-75.66c0-28.58,11.13-55.45,31.34-75.66
				S871.52,1152.53,900.1,1152.53 M900.1,1151.53c-59.65,0-108,48.35-108,108s48.35,108,108,108s108-48.35,108-108
				S959.74,1151.53,900.1,1151.53L900.1,1151.53z"/>
		</g>
	</g>
	<g>
		<polygon points="721.21,1079.5 1079.5,721.21 1079.5,1079.5 		"/>
		<path d="M1079,722.41V1079H722.41L1079,722.41 M1080,720c-120,120-240,240-360,360h360V720L1080,720z"/>
	</g>
	<g>
		<polygon points="360.5,1079.5 360.5,721.21 718.79,1079.5 		"/>
		<path d="M361,722.41L717.59,1079L361,1079V722.41 M360,720v360l360,0C600,960,480,840,360,720L360,720z"/>
	</g>
	<g>
		<polygon points="1.21,719.5 359.5,361.21 359.5,719.5 		"/>
		<path d="M359,362.41V719H2.41L359,362.41 M360,360C240,480,120,600,0,720h360V360L360,360z"/>
	</g>
	<g>
		<polygon points="361.21,1080.5 719.5,1080.5 719.5,1438.79 		"/>
		<path d="M719,1081v356.59L362.41,1081H719 M720,1080H360c120,120,240,240,360,360V1080L720,1080z"/>
	</g>
	<g>
		<polygon points="1080.5,720.5 1438.79,720.5 1080.5,1078.79 		"/>
		<path d="M1437.59,721L1081,1077.59V721H1437.59 M1440,720h-360v360C1200,960,1320,840,1440,720L1440,720z"/>
	</g>
	<g>
		<polygon points="720.5,359.5 720.5,1.21 1078.79,359.5 		"/>
		<path d="M721,2.41L1077.59,359H721V2.41 M720,0v360h360C960,240,840,120,720,0L720,0z"/>
	</g>
</g>
</svg>
