<?xml version="1.0" encoding="utf-8"?>
<!-- Generator: Adobe Illustrator 24.0.1, SVG Export Plug-In . SVG Version: 6.00 Build 0)  -->
<svg version="1.1" xmlns="http://www.w3.org/2000/svg" xmlns:xlink="http://www.w3.org/1999/xlink" x="0px" y="0px"
	 viewBox="0 0 1440 1440" style="enable-background:new 0 0 1440 1440;" xml:space="preserve">
<style type="text/css">
	.st0{fill:#FFFFFF;}
</style>
<g id="Capa_2">
	<g>
		<rect x="0.5" y="0.5" class="st0" width="1439" height="1439"/>
		<path class="st0" d="M1439,1v1438H1V1H1439 M1440,0H0v1440h1440V0L1440,0z"/>
	</g>
</g>
<g id="Capa_1">
	<g>
		<polygon points="1.21,359.5 359.5,1.21 359.5,359.5 		"/>
		<path d="M359,2.41V359H2.41L359,2.41 M360,0C240,120,120,240,0,360h360V0L360,0z"/>
	</g>
	<g>
		<polygon points="1080.5,359.5 1080.5,1.21 1438.79,359.5 		"/>
		<path d="M1081,2.41L1437.59,359H1081V2.41 M1080,0v360h360C1320,240,1200,120,1080,0L1080,0z"/>
	</g>
	<g>
		<polygon points="1.21,1080.5 359.5,1080.5 359.5,1438.79 		"/>
		<path d="M359,1081v356.59L2.41,1081H359 M360,1080H0c120,120,240,240,360,360V1080L360,1080z"/>
	</g>
	<g>
		<polygon points="1080.5,1080.5 1438.79,1080.5 1080.5,1438.79 		"/>
		<path d="M1437.59,1081L1081,1437.59V1081H1437.59 M1440,1080h-360v360C1200,1320,1320,1200,1440,1080L1440,1080z"/>
	</g>
	<g>
		<g>
			<rect x="360.5" y="0.5" width="359" height="359"/>
			<path d="M719,1v358H361V1H719 M720,0H360v360h360V0L720,0z"/>
		</g>
		<g>
			<circle class="st0" cx="540" cy="180.01" r="107.5"/>
			<path d="M540,73.01c28.58,0,55.45,11.13,75.66,31.34c20.21,20.21,31.34,47.08,31.34,75.66c0,28.58-11.13,55.45-31.34,75.66
				c-20.21,20.21-47.08,31.34-75.66,31.34s-55.45-11.13-75.66-31.34C444.13,235.46,433,208.59,433,180.01
				c0-28.58,11.13-55.45,31.34-75.66C484.55,84.14,511.42,73.01,540,73.01 M540,72.01c-59.65,0-108,48.35-108,108
				c0,59.65,48.35,108,108,108s108-48.35,108-108C648,120.36,599.65,72.01,540,72.01L540,72.01z"/>
		</g>
	</g>
	<g>
		<g>
			<rect x="720.6" y="0.02" width="359" height="359"/>
			<path d="M1079.1,0.52v358h-358v-358H1079.1 M1080.1-0.48h-360v360h360V-0.48L1080.1-0.48z"/>
		</g>
		<g>
			<ellipse class="st0" cx="900.1" cy="179.53" rx="107.5" ry="107.5"/>
			<path d="M900.1,72.53c28.58,0,55.45,11.13,75.66,31.34s31.34,47.08,31.34,75.66c0,28.58-11.13,55.45-31.34,75.66
				s-47.08,31.34-75.66,31.34c-28.58,0-55.45-11.13-75.66-31.34s-31.34-47.08-31.34-75.66c0-28.58,11.13-55.45,31.34-75.66
				S871.52,72.53,900.1,72.53 M900.1,71.53c-59.65,0-108,48.35-108,108c0,59.65,48.35,108,108,108s108-48.35,108-108
				C1008.1,119.88,959.74,71.53,900.1,71.53L900.1,71.53z"/>
		</g>
	</g>
	<g>
		<g>
			<rect x="0.6" y="360.02" width="359" height="359"/>
			<path d="M359.1,360.52v358H1.1v-358H359.1 M360.1,359.52H0.1v360h360V359.52L360.1,359.52z"/>
		</g>
		<g>
			<ellipse class="st0" cx="180.1" cy="539.53" rx="107.5" ry="107.5"/>
			<path d="M180.1,432.53c28.58,0,55.45,11.13,75.66,31.34c20.21,20.21,31.34,47.08,31.34,75.66c0,28.58-11.13,55.45-31.34,75.66
				c-20.21,20.21-47.08,31.34-75.66,31.34s-55.45-11.13-75.66-31.34S73.1,568.11,73.1,539.53c0-28.58,11.13-55.45,31.34-75.66
				S151.52,432.53,180.1,432.53 M180.1,431.53c-59.65,0-108,48.35-108,108c0,59.65,48.35,108,108,108s108-48.35,108-108
				C288.1,479.88,239.74,431.53,180.1,431.53L180.1,431.53z"/>
		</g>
	</g>
	<g>
		<g>
			<rect x="0.6" y="720.02" width="359" height="359"/>
			<path d="M359.1,720.52v358H1.1v-358H359.1 M360.1,719.52H0.1v360h360V719.52L360.1,719.52z"/>
		</g>
		<g>
			<ellipse class="st0" cx="180.1" cy="899.53" rx="107.5" ry="107.5"/>
			<path d="M180.1,792.53c28.58,0,55.45,11.13,75.66,31.34c20.21,20.21,31.34,47.08,31.34,75.66c0,28.58-11.13,55.45-31.34,75.66
				c-20.21,20.21-47.08,31.34-75.66,31.34s-55.45-11.13-75.66-31.34S73.1,928.11,73.1,899.53c0-28.58,11.13-55.45,31.34-75.66
				S151.52,792.53,180.1,792.53 M180.1,791.53c-59.65,0-108,48.35-108,108c0,59.65,48.35,108,108,108s108-48.35,108-108
				C288.1,839.88,239.74,791.53,180.1,791.53L180.1,791.53z"/>
		</g>
	</g>
	<g>
		<g>
			<rect x="360.6" y="1080.02" width="359" height="359"/>
			<path d="M719.1,1080.52v358h-358v-358H719.1 M720.1,1079.52h-360v360h360V1079.52L720.1,1079.52z"/>
		</g>
		<g>
			<ellipse class="st0" cx="540.1" cy="1259.53" rx="107.5" ry="107.5"/>
			<path d="M540.1,1152.53c28.58,0,55.45,11.13,75.66,31.34s31.34,47.08,31.34,75.66c0,28.58-11.13,55.45-31.34,75.66
				s-47.08,31.34-75.66,31.34c-28.58,0-55.45-11.13-75.66-31.34c-20.21-20.21-31.34-47.08-31.34-75.66
				c0-28.58,11.13-55.45,31.34-75.66C484.65,1163.66,511.52,1152.53,540.1,1152.53 M540.1,1151.53c-59.65,0-108,48.35-108,108
				s48.35,108,108,108s108-48.35,108-108S599.74,1151.53,540.1,1151.53L540.1,1151.53z"/>
		</g>
	</g>
	<g>
		<g>
			<rect x="1080.6" y="360.02" width="359" height="359"/>
			<path d="M1439.1,360.52v358h-358v-358H1439.1 M1440.1,359.52h-360v360h360V359.52L1440.1,359.52z"/>
		</g>
		<g>
			<ellipse class="st0" cx="1260.1" cy="539.53" rx="107.5" ry="107.5"/>
			<path d="M1260.1,432.53c28.58,0,55.45,11.13,75.66,31.34s31.34,47.08,31.34,75.66c0,28.58-11.13,55.45-31.34,75.66
				s-47.08,31.34-75.66,31.34c-28.58,0-55.45-11.13-75.66-31.34c-20.21-20.21-31.34-47.08-31.34-75.66
				c0-28.58,11.13-55.45,31.34-75.66C1204.65,443.66,1231.52,432.53,1260.1,432.53 M1260.1,431.53c-59.65,0-108,48.35-108,108
				c0,59.65,48.35,108,108,108s108-48.35,108-108C1368.1,479.88,1319.74,431.53,1260.1,431.53L1260.1,431.53z"/>
		</g>
	</g>
	<g>
		<g>
			<rect x="1080.6" y="720.02" width="359" height="359"/>
			<path d="M1439.1,720.52v358h-358v-358H1439.1 M1440.1,719.52h-360v360h360V719.52L1440.1,719.52z"/>
		</g>
		<g>
			<ellipse class="st0" cx="1260.1" cy="899.53" rx="107.5" ry="107.5"/>
			<path d="M1260.1,792.53c28.58,0,55.45,11.13,75.66,31.34s31.34,47.08,31.34,75.66c0,28.58-11.13,55.45-31.34,75.66
				s-47.08,31.34-75.66,31.34c-28.58,0-55.45-11.13-75.66-31.34c-20.21-20.21-31.34-47.08-31.34-75.66
				c0-28.58,11.13-55.45,31.34-75.66C1204.65,803.66,1231.52,792.53,1260.1,792.53 M1260.1,791.53c-59.65,0-108,48.35-108,108
				c0,59.65,48.35,108,108,108s108-48.35,108-108C1368.1,839.88,1319.74,791.53,1260.1,791.53L1260.1,791.53z"/>
		</g>
	</g>
	<g>
		<g>
			<rect x="720.6" y="1080.02" width="359" height="359"/>
			<path d="M1079.1,1080.52v358h-358v-358H1079.1 M1080.1,1079.52h-360v360h360V1079.52L1080.1,1079.52z"/>
		</g>
		<g>
			<ellipse class="st0" cx="900.1" cy="1259.53" rx="107.5" ry="107.5"/>
			<path d="M900.1,1152.53c28.58,0,55.45,11.13,75.66,31.34s31.34,47.08,31.34,75.66c0,28.58-11.13,55.45-31.34,75.66
				s-47.08,31.34-75.66,31.34c-28.58,0-55.45-11.13-75.66-31.34s-31.34-47.08-31.34-75.66c0-28.58,11.13-55.45,31.34-75.66
				S871.52,1152.53,900.1,1152.53 M900.1,1151.53c-59.65,0-108,48.35-108,108s48.35,108,108,108s108-48.35,108-108
				S959.74,1151.53,900.1,1151.53L900.1,1151.53z"/>
		</g>
	</g>
	<g>
		<polygon points="721.21,1079.5 1079.5,721.21 1079.5,1079.5 		"/>
		<path d="M1079,722.41V1079H722.41L1079,722.41 M1080,720c-120,120-240,240-360,360h360V720L1080,720z"/>
	</g>
	<g>
		<polygon points="360.5,360.5 718.79,360.5 360.5,718.79 		"/>
		<path d="M717.59,361L361,717.59V361H717.59 M720,360H360v360C480,600,600,480,720,360L720,360z"/>
	</g>
</g>
</svg>
