<?xml version="1.0" encoding="utf-8"?>
<!-- Generator: Adobe Illustrator 24.0.1, SVG Export Plug-In . SVG Version: 6.00 Build 0)  -->
<svg version="1.1" id="Capa_1" xmlns="http://www.w3.org/2000/svg" xmlns:xlink="http://www.w3.org/1999/xlink" x="0px" y="0px"
	 viewBox="0 0 1440 1440" style="enable-background:new 0 0 1440 1440;" xml:space="preserve">
<style type="text/css">
	.st0{fill:#FFFFFF;}
</style>
<g>
	<rect x="0.8" y="3.6" class="st0" width="1439" height="1439"/>
	<path class="st0" d="M1439.3,4.1v1438H1.3V4.1H1439.3 M1440.3,3.1H0.3v1440h1440V3.1L1440.3,3.1z"/>
</g>
<g>
	<polygon points="359.5,-1.2 717.8,-1.2 717.8,357.1 	"/>
	<path d="M717.3-0.7v356.6L360.7-0.7H717.3 M718.3-1.7h-360c120,120,240,240,360,360V-1.7L718.3-1.7z"/>
</g>
<g>
	<polygon points="1.2,718.8 359.5,718.8 1.2,1077.1 	"/>
	<path d="M358.3,719.3L1.7,1075.9V719.3H358.3 M360.7,718.3H0.7v360C120.7,958.3,240.7,838.3,360.7,718.3L360.7,718.3z"/>
</g>
<g>
	<polygon points="719.8,1439.5 719.8,1081.2 1078.1,1439.5 	"/>
	<path d="M720.3,1082.4l214.3,214.3l142.3,142.3H720.3V1082.4 M719.3,1080v360h360C959.3,1320,839.3,1200,719.3,1080L719.3,1080z"/>
</g>
<g>
	<polygon points="1082.6,719 1440.9,360.7 1440.9,719 	"/>
	<path d="M1440.4,361.9v356.6h-356.6L1440.4,361.9 M1441.4,359.5c-120,120-240,240-360,360h360V359.5L1441.4,359.5z"/>
</g>
<g>
	<g>
		<rect x="-0.2" y="1077.1" class="st0" width="359" height="359"/>
		<path class="st0" d="M358.3,1077.6v358H0.3v-358H358.3 M359.3,1076.6h-360v360h360V1076.6L359.3,1076.6z"/>
	</g>
	<g>
		<ellipse cx="179.3" cy="1256.6" rx="107.5" ry="107.5"/>
		<path d="M179.3,1149.6c28.6,0,55.5,11.1,75.7,31.3c20.2,20.2,31.3,47.1,31.3,75.7c0,28.6-11.1,55.4-31.3,75.7
			s-47.1,31.3-75.7,31.3s-55.5-11.1-75.7-31.3s-31.3-47.1-31.3-75.7c0-28.6,11.1-55.4,31.3-75.7
			C123.8,1160.7,150.7,1149.6,179.3,1149.6 M179.3,1148.6c-59.6,0-108,48.3-108,108s48.4,108,108,108s108-48.3,108-108
			S238.9,1148.6,179.3,1148.6L179.3,1148.6z"/>
	</g>
</g>
<g>
	<g>
		<rect x="1080.4" y="1077.8" class="st0" width="359" height="359"/>
		<path class="st0" d="M1438.9,1078.3v358h-358v-358L1438.9,1078.3 M1439.9,1077.3h-360v360h360V1077.3L1439.9,1077.3z"/>
	</g>
	<g>
		<ellipse cx="1259.9" cy="1257.3" rx="107.5" ry="107.5"/>
		<path d="M1259.9,1150.3c28.6,0,55.4,11.1,75.7,31.3c20.2,20.2,31.3,47.1,31.3,75.7c0,28.6-11.1,55.5-31.3,75.7
			c-20.2,20.2-47.1,31.3-75.7,31.3c-28.6,0-55.4-11.1-75.7-31.3c-20.2-20.2-31.3-47.1-31.3-75.7c0-28.6,11.1-55.4,31.3-75.7
			C1204.5,1161.4,1231.3,1150.3,1259.9,1150.3 M1259.9,1149.3c-59.7,0-108,48.3-108,108s48.3,108,108,108s108-48.3,108-108
			C1367.9,1197.7,1319.6,1149.3,1259.9,1149.3L1259.9,1149.3z"/>
	</g>
</g>
<g>
	<g>
		<rect x="1.2" y="1.5" class="st0" width="359" height="359"/>
		<path class="st0" d="M359.7,2v358H1.7V2H359.7 M360.7,1H0.7v360h360V1L360.7,1z"/>
	</g>
	<g>
		<circle cx="180.7" cy="181" r="107.5"/>
		<path d="M180.7,74c28.6,0,55.4,11.1,75.7,31.3s31.3,47.1,31.3,75.7c0,28.6-11.1,55.5-31.3,75.7S209.3,288,180.7,288
			s-55.4-11.1-75.7-31.3S73.7,209.6,73.7,181c0-28.6,11.1-55.5,31.3-75.7C125.2,85.1,152.1,74,180.7,74 M180.7,73
			c-59.7,0-108,48.4-108,108c0,59.7,48.3,108,108,108s108-48.3,108-108C288.7,121.4,240.3,73,180.7,73L180.7,73z"/>
	</g>
</g>
<g>
	<g>
		<rect x="1080.4" y="1.5" class="st0" width="359" height="359"/>
		<path class="st0" d="M1438.9,2v358h-358V2L1438.9,2 M1439.9,1h-360v360h360V1L1439.9,1z"/>
	</g>
	<g>
		<circle cx="1259.9" cy="181" r="107.5"/>
		<path d="M1259.9,74c28.6,0,55.5,11.1,75.7,31.3c20.2,20.2,31.3,47.1,31.3,75.7s-11.1,55.4-31.3,75.7
			c-20.2,20.2-47.1,31.3-75.7,31.3s-55.4-11.1-75.7-31.3s-31.3-47.1-31.3-75.7s11.1-55.4,31.3-75.7C1204.5,85.2,1231.3,74,1259.9,74
			 M1259.9,73c-59.6,0-108,48.3-108,108s48.4,108,108,108c59.7,0,108-48.4,108-108C1367.9,121.4,1319.6,73,1259.9,73L1259.9,73z"/>
	</g>
</g>
<g>
	<polygon points="1.2,717.8 1.2,359.5 359.5,717.8 	"/>
	<path d="M1.7,360.7L240,599l118.3,118.3H1.7V360.7 M0.7,358.3v360h360C240.7,598.3,120.7,478.3,0.7,358.3L0.7,358.3z"/>
</g>
<g>
	<polygon points="717.8,-1.2 1076.1,-1.2 717.8,357.1 	"/>
	<path d="M1074.9-0.7L896.6,177.6L718.3,355.9V-0.7H1074.9 M1077.3-1.7h-360v360C837.3,238.3,957.3,118.3,1077.3-1.7L1077.3-1.7z"/>
</g>
<g>
	<polygon points="359.5,1440.2 717.8,1081.9 717.8,1440.2 	"/>
	<path d="M717.3,1083.1v356.6H360.7L717.3,1083.1 M718.3,1080.7c-120,120-240,240-360,360h360V1080.7L718.3,1080.7z"/>
</g>
<g>
	<polygon points="1082.6,719.5 1440.9,719.5 1440.9,1077.8 	"/>
	<path d="M1440.4,720v356.6L1083.8,720H1440.4 M1441.4,719h-360c120,120,240,240,360,360V719L1441.4,719z"/>
</g>
</svg>
