<?xml version="1.0" encoding="utf-8"?>
<!-- Generator: Adobe Illustrator 24.0.1, SVG Export Plug-In . SVG Version: 6.00 Build 0)  -->
<svg version="1.1" xmlns="http://www.w3.org/2000/svg" xmlns:xlink="http://www.w3.org/1999/xlink" x="0px" y="0px"
	 viewBox="0 0 1440 1440" style="enable-background:new 0 0 1440 1440;" xml:space="preserve">
<style type="text/css">
	.st0{fill:#FFFFFF;}
</style>
<g id="Capa_2">
	<g>
		<rect x="0.5" y="0.5" class="st0" width="1439" height="1439"/>
		<path class="st0" d="M1439,1v1438H1V1H1439 M1440,0H0v1440h1440V0L1440,0z"/>
	</g>
</g>
<g id="Capa_1">
	<g>
		<polygon points="1.21,1081.5 359.5,723.21 359.5,1081.5 		"/>
		<path d="M359,724.41V1081H2.41L359,724.41 M360,722C240,842,120,962,0,1082h360V722L360,722z"/>
	</g>
	<g>
		<polygon points="360.5,357.5 360.5,-0.79 718.79,357.5 		"/>
		<path d="M361,0.41L717.59,357H361V0.41 M360-2v360h360C600,238,480,118,360-2L360-2z"/>
	</g>
	<g>
		<polygon points="1.21,-0.5 359.5,-0.5 359.5,357.79 		"/>
		<path d="M359,0v356.59L2.41,0H359 M360-1H0c120,120,240,240,360,360V-1L360-1z"/>
	</g>
	<g>
		<polygon points="0.5,1080.5 358.79,1080.5 0.5,1438.79 		"/>
		<path d="M357.59,1081L1,1437.59V1081H357.59 M360,1080H0v360C120,1320,240,1200,360,1080L360,1080z"/>
	</g>
	<g>
		<polygon points="1080.5,359.5 1438.79,359.5 1080.5,717.79 		"/>
		<path d="M1437.59,360l-178.29,178.29L1081,716.59l0-356.59L1437.59,360 M1440,359l-360,0l0,360C1200,599,1320,479,1440,359
			L1440,359z"/>
	</g>
	<g>
		<polygon points="1080.5,1439.5 1080.5,1081.21 1438.79,1439.5 		"/>
		<path d="M1081,1082.41l214.29,214.29L1437.59,1439l-356.59,0L1081,1082.41 M1080,1080l0,360l360,0C1320,1320,1200,1200,1080,1080
			L1080,1080z"/>
	</g>
	<g>
		<polygon points="1081.21,358.5 1439.5,0.21 1439.5,358.5 		"/>
		<path d="M1439,1.41V358h-356.59L1439,1.41 M1440-1c-120,120-240,240-360,360h360V-1L1440-1z"/>
	</g>
	<g>
		<polygon points="721.21,1080.5 1079.5,1080.5 1079.5,1438.79 		"/>
		<path d="M1079,1081l0,356.59l-238.29-238.29L722.41,1081L1079,1081 M1080,1080l-360,0c120,120,240,240,360,360L1080,1080
			L1080,1080z"/>
	</g>
	<g>
		<g>
			<rect x="360.44" y="1080.95" class="st0" width="359" height="359"/>
			<path class="st0" d="M718.94,1081.45v358h-358v-358H718.94 M719.94,1080.45h-360v360h360V1080.45L719.94,1080.45z"/>
		</g>
		<g>
			<ellipse cx="539.94" cy="1260.46" rx="107.5" ry="107.5"/>
			<path d="M539.94,1153.46c28.58,0,55.45,11.13,75.66,31.34c20.21,20.21,31.34,47.08,31.34,75.66c0,28.58-11.13,55.45-31.34,75.66
				s-47.08,31.34-75.66,31.34s-55.45-11.13-75.66-31.34c-20.21-20.21-31.34-47.08-31.34-75.66c0-28.58,11.13-55.45,31.34-75.66
				C484.48,1164.59,511.35,1153.46,539.94,1153.46 M539.94,1152.46c-59.65,0-108,48.35-108,108s48.35,108,108,108s108-48.35,108-108
				S599.58,1152.46,539.94,1152.46L539.94,1152.46z"/>
		</g>
	</g>
	<g>
		<g>
			<rect x="1080.44" y="720.95" class="st0" width="359" height="359"/>
			<path class="st0" d="M1438.94,721.45v358h-358v-358H1438.94 M1439.94,720.45h-360v360h360V720.45L1439.94,720.45z"/>
		</g>
		<g>
			<ellipse cx="1259.94" cy="900.46" rx="107.5" ry="107.5"/>
			<path d="M1259.94,793.46c28.58,0,55.45,11.13,75.66,31.34c20.21,20.21,31.34,47.08,31.34,75.66c0,28.58-11.13,55.45-31.34,75.66
				c-20.21,20.21-47.08,31.34-75.66,31.34c-28.58,0-55.45-11.13-75.66-31.34c-20.21-20.21-31.34-47.08-31.34-75.66
				c0-28.58,11.13-55.45,31.34-75.66C1204.48,804.59,1231.35,793.46,1259.94,793.46 M1259.94,792.46c-59.65,0-108,48.35-108,108
				c0,59.65,48.35,108,108,108s108-48.35,108-108C1367.94,840.82,1319.58,792.46,1259.94,792.46L1259.94,792.46z"/>
		</g>
	</g>
	<g>
		<g>
			<rect x="0.44" y="359.95" class="st0" width="359" height="359"/>
			<path class="st0" d="M358.94,360.45v358h-358v-358H358.94 M359.94,359.45h-360v360h360V359.45L359.94,359.45z"/>
		</g>
		<g>
			<circle cx="179.94" cy="539.46" r="107.5"/>
			<path d="M179.94,432.46c28.58,0,55.45,11.13,75.66,31.34c20.21,20.21,31.34,47.08,31.34,75.66c0,28.58-11.13,55.45-31.34,75.66
				s-47.08,31.34-75.66,31.34s-55.45-11.13-75.66-31.34c-20.21-20.21-31.34-47.08-31.34-75.66c0-28.58,11.13-55.45,31.34-75.66
				C124.48,443.59,151.35,432.46,179.94,432.46 M179.94,431.46c-59.65,0-108,48.35-108,108c0,59.65,48.35,108,108,108
				s108-48.35,108-108C287.94,479.82,239.58,431.46,179.94,431.46L179.94,431.46z"/>
		</g>
	</g>
	<g>
		<g>
			<rect x="720.44" y="-0.05" class="st0" width="359" height="359"/>
			<path class="st0" d="M1078.94,0.45v358h-358v-358H1078.94 M1079.94-0.55h-360v360h360V-0.55L1079.94-0.55z"/>
		</g>
		<g>
			<circle cx="899.94" cy="179.46" r="107.5"/>
			<path d="M899.94,72.46c28.58,0,55.45,11.13,75.66,31.34c20.21,20.21,31.34,47.08,31.34,75.66c0,28.58-11.13,55.45-31.34,75.66
				s-47.08,31.34-75.66,31.34s-55.45-11.13-75.66-31.34s-31.34-47.08-31.34-75.66c0-28.58,11.13-55.45,31.34-75.66
				C844.48,83.59,871.35,72.46,899.94,72.46 M899.94,71.46c-59.65,0-108,48.35-108,108c0,59.65,48.35,108,108,108s108-48.35,108-108
				C1007.94,119.82,959.58,71.46,899.94,71.46L899.94,71.46z"/>
		</g>
	</g>
	<g>
		<polygon points="720.5,718.5 720.5,360.21 1078.79,718.5 		"/>
		<path d="M721,361.41l238.29,238.29L1077.59,718H721L721,361.41 M720,359l0,360h360C960,599,840,479,720,359L720,359z"/>
	</g>
	<g>
		<polygon points="720.5,719.5 1078.79,719.5 720.5,1077.79 		"/>
		<path d="M1077.59,720L899.29,898.29L721,1076.59V720L1077.59,720 M1080,719l-360,0v360C840,959,960,839,1080,719L1080,719z"/>
	</g>
	<g>
		<polygon points="361.21,721.5 719.5,363.21 719.5,721.5 		"/>
		<path d="M719,364.41V721H362.41L719,364.41 M720,362C600,482,480,602,360,722h360V362L720,362z"/>
	</g>
	<g>
		<polygon points="361.21,719.5 719.5,719.5 719.5,1077.79 		"/>
		<path d="M719,720l0,356.59L362.41,720L719,720 M720,719l-360,0c120,120,240,240,360,360L720,719L720,719z"/>
	</g>
</g>
</svg>
